<?xml version="1.0" encoding="UTF-8" standalone="no"?><svg xmlns="http://www.w3.org/2000/svg" xmlns:xlink="http://www.w3.org/1999/xlink" style="isolation:isolate" viewBox="0 0 1024 1024" width="1024pt" height="1024pt"><linearGradient id="a" x1="0.8417867555132306" y1="0.15893949818578834" x2="0.01753581474148669" y2="0.9834944641697597" gradientTransform="matrix(912.714,0,0,912.378,55.643,56)" gradientUnits="userSpaceOnUse"><stop offset="0%" stop-opacity="1" style="stop-color:#00c5c3"/><stop offset="100%" stop-opacity="1" style="stop-color:#3197ff"/></linearGradient><path d="m938.13 377.24-290.26-290.26c-22.108-22.107-51.902-32.679-82.657-30.754-30.754 1.921-58.627 18.262-76.889 42.29l-135.52 184.54c-14.417-13.456-36.524-13.456-50.941 0.96l-65.358 65.358c-37.485 37.485-45.171 96.112-19.222 142.25l45.171 80.734c6.726 12.496 3.845 27.874-6.727 36.524l-153.78 129.75c-27.874 23.067-44.211 57.667-46.136 94.19-1.921 36.524 12.497 72.084 38.445 97.073 25.949 25.948 61.513 39.405 97.073 38.445 36.525-1.921 70.164-18.263 94.19-46.136l129.75-153.78c8.651-10.572 24.989-13.457 36.525-6.727l80.734 45.171c46.135 25.949 104.76 18.262 142.25-19.222l65.357-65.358c14.417-14.417 14.417-36.524 0.961-50.941l184.54-135.52c24.988-18.262 40.365-46.135 42.29-76.889 2.882-29.794-8.651-60.553-29.794-81.696h1e-3zm-285.45 331.59-28.833 28.834c-14.417 14.416-37.485 17.301-54.783 7.69l-80.734-45.171c-43.25-24.992-97.073-14.42-128.79 22.104l-129.75 153.78c-10.572 13.457-26.913 20.183-44.211 20.183-30.754 0-56.707-25.949-56.707-56.707 0-17.302 7.69-32.679 20.183-43.25l153.78-129.75c37.485-31.718 47.096-85.539 23.068-128.79l-45.171-80.734c-9.611-18.262-6.727-40.365 7.69-54.782l28.834-28.834c5.766-5.766 16.337-5.766 22.107 0l313.32 312.36c5.766 6.727 5.766 16.338 0 23.068l-6e-3 -2e-3zm229.71-231.63-171.08 126.87c-12.497 9.611-29.794 7.69-41.33-2.885l-246.05-246.05c-11.532-11.531-12.496-28.833-2.885-41.329l125.91-171.08c7.69-10.571 18.262-12.496 24.028-13.456 5.766 0 16.338 0 24.989 9.611 8.65 8.651 11.531 22.107 6.726 34.599l-25.949 62.473c-5.766 14.417 8.651 29.794 23.068 23.068l66.318-27.873c9.611-3.846 20.183-1.921 27.874 5.766 7.69 7.69 9.611 18.262 5.766 27.873l-27.874 65.36c-5.766 14.417 8.651 28.834 23.068 23.068l66.318-27.873c9.611-3.846 20.183-1.921 27.873 5.766 7.691 7.69 9.612 18.262 5.767 27.873l-27.874 66.318c-5.766 14.417 8.651 29.794 23.068 23.068l62.473-25.949c11.532-4.805 24.988-1.921 34.599 6.727 9.611 9.611 9.611 20.182 9.611 24.988-0.96 5.766-3.845 15.377-14.416 23.068l1e-3 -2e-3z" fill="url(#a)"/></svg>
